# xmcd
#
# Track frame offsets: 
#        150
#        12063
#        23669
#        36513
#        48020
#        59604
#        72013
#        80684
#        91563
#        104805
#        114089
#        126668
#        137768
#        149192
#        162957
#        175589
#        187254
#        199034
#        212300
#        223586
#        235396
#        246964
#        258623
#        269939
#        280511
#
# Disc length: 3907 seconds
#
# Revision: 3
# Processed by: cddbd v1.5.2PL0 Copyright (c) Steve Scherf et al.
# Submitted via: ExactAudioCopyFreeDBPlugin 1.0
#
DISCID=7b0f4119
DTITLE=Various Artist - Move with the Groove:  Hardcore Chicago Soul,
DTITLE=1962-1970 (The One-derful! - Mar-V-Lus Story)
DYEAR=2012
DGENRE=Soul
TTITLE0=The Sharpees - Tired of Being Lonely
TTITLE1=Big Daddy Simpson - Give Me Back My Ring
TTITLE2=Cicero Blake - Sad Feeling
TTITLE3=Joseph Moore - I Still Can't Get You
TTITLE4=Alvin Cash and The Registers - The Philly Freeze
TTITLE5=Josephine Taylor - What is Love
TTITLE6=Andrew Tibbs - I Made a Mistake
TTITLE7=Harold Burrage - More Power to You
TTITLE8=Stacy Johnson - I Stand Alone
TTITLE9=Josephine Taylor - Ordinary Guy
TTITLE10=Liz Lands - One Man's Poison
TTITLE11=The Admirations - Wait Til I Get to Know You
TTITLE12=Miss Madeline - Behave Yourself
TTITLE13=The Ulti-Mations - Without You
TTITLE14=The Ulti-Mations - Would I Do it Over
TTITLE15=Otis Clay - That's How it Is (When You're in Love)
TTITLE16=Wylie Dixon - Gotta Hold On
TTITLE17=Otis Clay - A Lasting Love
TTITLE18=Willie Parker - You Got Your Finger in My Eye
TTITLE19=Alvin Cash - Keep n Dancin'
TTITLE20=Bull and The Matadors - The Funky Judge
TTITLE21=Thomas East and The Fabulous Playboys - I Get a Groove
TTITLE22=Simtec and Wylie - Socking Soul Power
TTITLE23=Bull and The Matadors - Move with the Groove
TTITLE24=Toddlin Town Sounds - It's Your Thing
EXTD=YEAR: 2012
EXTT0=
EXTT1=
EXTT2=
EXTT3=
EXTT4=
EXTT5=
EXTT6=
EXTT7=
EXTT8=
EXTT9=
EXTT10=
EXTT11=
EXTT12=
EXTT13=
EXTT14=
EXTT15=
EXTT16=
EXTT17=
EXTT18=
EXTT19=
EXTT20=
EXTT21=
EXTT22=
EXTT23=
EXTT24=
PLAYORDER=
